<svg preserveAspectRatio="none" overflow="visible" style="display: block;" width="23.016" height="31.9849" viewBox="0 0 23.016 31.9849" fill="none" xmlns="http://www.w3.org/2000/svg">
<g id="health-care-2--health-medical-hospital-heart-care-symbol">
<path id="Union" fill-rule="evenodd" clip-rule="evenodd" d="M8.84244 6C8.84244 4.52724 10.0363 3.33333 11.5091 3.33333C12.9819 3.33333 14.1758 4.52724 14.1758 6C14.1758 7.47276 12.9819 8.66667 11.5091 8.66667C10.0363 8.66667 8.84244 7.47276 8.84244 6ZM11.5091 0C8.1954 0 5.50911 2.68629 5.50911 6C5.50911 9.31371 8.1954 12 11.5091 12C14.8228 12 17.5091 9.31371 17.5091 6C17.5091 2.68629 14.8228 0 11.5091 0ZM12.9511 13.8649C15.2536 11.5624 18.9867 11.5624 21.2892 13.8649C23.5916 16.1675 23.5916 19.9005 21.2892 22.2031L21.2872 22.2049L21.2754 22.2168L21.2734 22.2188L12.4502 31.042L11.5074 31.9849L10.5646 31.042L1.7403 22.2177L1.73842 22.2159L1.72734 22.2048L1.72547 22.2029C-0.575157 19.9024 -0.575157 16.1723 1.72547 13.8717C4.0261 11.5711 7.75615 11.5711 10.0567 13.8717C10.1482 13.9631 10.236 14.0569 10.3204 14.1529L11.5074 15.3399L12.6042 14.2431C12.7135 14.1131 12.8291 13.9868 12.9511 13.8649Z" fill="#740799"/>
</g>
</svg>
